<svg xmlns="http://www.w3.org/2000/svg" version="1.1" xmlns:xlink="http://www.w3.org/1999/xlink" width="1000" height="1000"><g clip-path="url(#SvgjsClipPath1050)"><rect width="1000" height="1000" fill="#ffffff"></rect><g transform="matrix(1.3358778625954197,0,0,1.3358778625954197,150,214.79007633587787)"><svg xmlns="http://www.w3.org/2000/svg" version="1.1" xmlns:xlink="http://www.w3.org/1999/xlink" width="524" height="427"><svg width="524" height="427" viewBox="0 0 524 427" fill="none" xmlns="http://www.w3.org/2000/svg">
<path d="M148.947 339.789C172.666 339.789 191.895 359.017 191.895 382.736C191.895 406.456 172.666 425.684 148.947 425.684C125.228 425.684 106 406.456 106 382.736C106 359.017 125.228 339.789 148.947 339.789Z" fill="#EF524D"></path>
<path d="M243.17 82.7479C290.068 83.2662 334.834 101.861 367.619 134.442C400.404 167.023 418.522 210.922 417.989 256.48C417.455 302.038 398.313 345.526 364.773 377.374C332.441 408.076 289.282 425.537 244.202 426.29C241.411 426.337 239.172 424.04 239.205 421.249L240.022 351.487C240.054 348.698 242.343 346.477 245.13 346.363C268.398 345.414 290.561 336.152 307.3 320.257C325.245 303.216 335.487 279.949 335.772 255.572C336.058 231.196 326.364 207.707 308.822 190.274C291.28 172.841 267.328 162.892 242.235 162.614H191.895V288C191.895 290.79 189.633 293.052 186.842 293.052H136.316C119.573 293.052 106 279.48 106 262.737V10.1053C106 4.52428 110.524 0 116.105 0H181.789C187.37 0 191.895 4.52428 191.895 10.1053V81.3071L243.17 82.7479Z" fill="#123395"></path>
</svg></svg></g></g><defs><clipPath id="SvgjsClipPath1050"><rect width="1000" height="1000" x="0" y="0" rx="350" ry="350"></rect></clipPath></defs></svg>